<svg width="16" height="16" viewBox="0 0 16 16" fill="none" xmlns="http://www.w3.org/2000/svg">
    <g clip-path="url(#clip0_1293_14705)">
        <path d="M14.6667 6.41395L9.87337 5.97887L8.00004 1.33325L6.12671 5.98588L1.33337 6.41395L4.97337 9.73325L3.88004 14.6666L8.00004 12.049L12.12 14.6666L11.0334 9.73325L14.6667 6.41395ZM8.00004 10.7368V4.21044L9.14004 7.04553L12.06 7.3122L9.84671 9.33325L10.5134 12.3368L8.00004 10.7368Z" fill="#FF9800"/>
        <path d="M8.26817 11.627L8.00004 11.4567L7.73191 11.627L4.6289 13.5984L5.46153 9.84144L5.52416 9.55884L5.31028 9.3638L2.51062 6.81081L6.17118 6.4839L6.47616 6.45667L6.59052 6.17263L8.00004 2.67194L9.40956 6.17263L9.52392 6.45667L9.8289 6.4839L13.4895 6.81081L10.6898 9.3638L10.4759 9.55884L10.5386 9.84144L11.3712 13.5984L8.26817 11.627Z" stroke="black" stroke-opacity="0.12"/>
    </g>
    <defs>
        <clipPath id="clip0_1293_14705">
            <rect width="16" height="16" fill="white"/>
        </clipPath>
    </defs>
</svg>
