<svg id="ic-guarantee-exchange_-48" data-name="ic-guarantee-exchange  -48" xmlns="http://www.w3.org/2000/svg" xmlns:xlink="http://www.w3.org/1999/xlink" width="48" height="48" viewBox="0 0 48 48">
  <defs>
    <clipPath id="clip-path">
      <path id="wrap" d="M0,0H48V48H0Z" transform="translate(-10444 -11724)" fill="none"/>
    </clipPath>
    <clipPath id="clip-path-2">
      <rect id="ic" width="10" height="13.926" fill="none"/>
    </clipPath>
  </defs>
  <g id="ic-guarantee-exchange" transform="translate(10444 11724)" clip-path="url(#clip-path)">
    <path id="ic-2" data-name="ic" d="M10749.032,12500a4.7,4.7,0,0,1-1.671-.334,20.783,20.783,0,0,1-4.922-2.726,23.84,23.84,0,0,1-5.224-5.17,21.512,21.512,0,0,1-3.73-8.357,23.682,23.682,0,0,1-.482-4.854c0-1.955,0-3.971,0-5.686v-1.705c0-.644.135-.819.757-.988a65.291,65.291,0,0,0,9.176-3.216c1.82-.8,3.731-1.764,5.841-2.934a.05.05,0,0,0,.015-.026l.422,0q.292.161.581.324l.071.04c.461.257.938.523,1.415.771a65.193,65.193,0,0,0,13,5.054c.571.156.719.351.719.944v1.876c0,1.564,0,3.617,0,5.622a22.406,22.406,0,0,1-1.738,8.8,21.934,21.934,0,0,1-4.27,6.493,24.675,24.675,0,0,1-4.847,3.979,19.188,19.188,0,0,1-3.868,1.889A3.766,3.766,0,0,1,10749.032,12500Zm-.036-34.5a64.547,64.547,0,0,1-14.595,5.951l0,.071,0,.042c0,.061-.006.112-.006.163q0,1.167,0,2.334v.567c0,1.347,0,2.738,0,4.1a21.87,21.87,0,0,0,.417,4.229,20.243,20.243,0,0,0,4.2,8.844,22.688,22.688,0,0,0,4.774,4.38,19.463,19.463,0,0,0,4.016,2.148,3.435,3.435,0,0,0,1.249.266,2.385,2.385,0,0,0,1.007-.219c.22-.1.441-.192.649-.281l.007,0c.486-.208.99-.423,1.465-.676a22.617,22.617,0,0,0,5.744-4.395,20.417,20.417,0,0,0,5.693-14.453v-7.118A66.608,66.608,0,0,1,10749,12465.5Zm0,32a2.638,2.638,0,0,1-1.06-.233,21.673,21.673,0,0,1-6.021-3.919,20.08,20.08,0,0,1-4.423-5.778,18.936,18.936,0,0,1-1.779-5.486,22.187,22.187,0,0,1-.279-3.68c0-1.782,0-3.6,0-5.35,0-.645.132-.823.741-1a65.993,65.993,0,0,0,10.723-4.241l.235-.117c.409-.205.874-.437,1.308-.686a1.082,1.082,0,0,1,.549-.164,1.192,1.192,0,0,1,.559.157,59.915,59.915,0,0,0,7.529,3.43c1.08.4,2.179.767,3.241,1.12l.188.063c.407.136.829.276,1.241.417.031.011.064.021.1.029l.031.01c.033.01.068.021.1.033a.741.741,0,0,1,.58.81c0,.817,0,1.656,0,2.295v1.083h-.009c0,.317,0,.639,0,.95v.085c0,.6.007,1.211,0,1.813a20.087,20.087,0,0,1-1.686,7.7,18.7,18.7,0,0,1-2.936,4.6,21.423,21.423,0,0,1-7.865,5.829A2.7,2.7,0,0,1,10749,12497.5Zm0-29.2a68.234,68.234,0,0,1-12.176,5.019v.421q0,.628,0,1.257v.484c0,.976,0,1.984,0,2.974a21.236,21.236,0,0,0,.273,3.5,17.38,17.38,0,0,0,3.043,7.319,20.5,20.5,0,0,0,5.478,5.183,18.089,18.089,0,0,0,2.86,1.512,1.385,1.385,0,0,0,.54.124,1.075,1.075,0,0,0,.489-.121c.233-.116.472-.229.7-.333.38-.179.811-.381,1.209-.6a19.93,19.93,0,0,0,3.972-2.939c.386-.362.772-.75,1.411-1.468a17.307,17.307,0,0,0,2.724-4.176,17.982,17.982,0,0,0,1.659-7.768c0-1.055,0-2.13,0-3.17v-.52q0-.671,0-1.343v-.339A69.2,69.2,0,0,1,10749,12468.3Zm-2.382,25.407a.717.717,0,0,1-.278-.06,1.194,1.194,0,0,1-.239-.138c-.718-.547-1.531-1.167-2.321-1.776a1.106,1.106,0,0,1-.267-.315.674.674,0,0,1,.106-.782.683.683,0,0,1,.493-.217.621.621,0,0,1,.238.047,1.464,1.464,0,0,1,.3.183q.533.4,1.066.813l1.2.916c.258.2.375.381.367.574A.7.7,0,0,1,10746.617,12493.709Z" transform="translate(-21169 -24182)" stroke="rgba(0,0,0,0)" stroke-width="1"/>
    <g id="ic-3" data-name="ic" transform="translate(-10425 -11708)">
      <g id="ic-4" data-name="ic" clip-path="url(#clip-path-2)">
        <path id="ic-5" data-name="ic" d="M8.565,5.756l.252.061A1.432,1.432,0,0,1,9.988,7.226q.024,2.624,0,5.248A1.441,1.441,0,0,1,8.56,13.921c-.078,0-.157.006-.235.006q-3.314,0-6.627,0a2.512,2.512,0,0,1-.535-.039A1.457,1.457,0,0,1,.02,12.521C0,12.208.011,11.894.011,11.58c0-1.334.026-2.67-.009-4A1.612,1.612,0,0,1,1.443,5.755c0-.124,0-.256,0-.387a19.794,19.794,0,0,1,.073-2.382A3.514,3.514,0,0,1,6.624.414,3.5,3.5,0,0,1,8.563,3.638c.01.594,0,1.189,0,1.783v.335M8.6,12.562c.09-.389.074-5.142-.008-5.392C8.268,7.083,1.643,7.1,1.35,7.2q0,2.651,0,5.36Zm-1.393-6.8c0-.812,0-1.593,0-2.374a1.413,1.413,0,0,0-.039-.266,2.213,2.213,0,0,0-4.38.487c-.014.627,0,1.254,0,1.881,0,.086.01.172.017.273Z" transform="translate(0 0)"/>
        <path id="ic-6" data-name="ic" d="M1052.49,105.922a1.25,1.25,0,0,1,.014,2.5,1.25,1.25,0,1,1-.014-2.5m0,1.924a.676.676,0,1,0-.673-.682.681.681,0,0,0,.673.682" transform="translate(-1047.496 -97.17)" stroke="rgba(0,0,0,0)" stroke-width="1"/>
      </g>
    </g>
    <path id="ic-7" data-name="ic" d="M715.99,328.4a.9.9,0,1,1,.9-.913.9.9,0,0,1-.9.913" transform="translate(-11142.589 -12020.101)" fill="#1a77d2" stroke="rgba(0,0,0,0)" stroke-width="1"/>
  </g>
</svg>
