<svg id="ic-great-assortment_-48" data-name="ic-great-assortment -48" xmlns="http://www.w3.org/2000/svg" xmlns:xlink="http://www.w3.org/1999/xlink" width="48" height="48" viewBox="0 0 48 48">
  <defs>
    <clipPath id="clip-path">
      <path id="wrap" d="M0,0H48V48H0Z" fill="none"/>
    </clipPath>
  </defs>
  <g id="ic-great-assortment" clip-path="url(#clip-path)">
    <path id="ic" d="M10754.153,12493.271h-.226c-.047-.04-.1-.079-.143-.117l-.033-.026a3.718,3.718,0,0,1-.316-.273c-.575-.578-1.159-1.17-1.724-1.743l-.169-.171-.537-.545-.543-.551-.026-.026-.026-.025-.026-.027c-.039-.04-.08-.081-.118-.125a.558.558,0,0,1,0-.815c.156-.17.333-.35.558-.564a.382.382,0,0,0,.119-.36l-.009-.087a3.94,3.94,0,0,1-.031-.649.738.738,0,0,0-.22-.587c-.658-.749-1.324-1.523-1.913-2.207l-.392-.455-1.743-2.016-.937-1.083-.387-.447-.03-.033-.02-.022c-.032-.038-.066-.076-.1-.116a.145.145,0,0,0-.1-.069c-.037,0-.074.027-.118.085l-.132.18-.029.039c-.162.221-.331.449-.5.671-.086.112-.049.188.034.267a1.135,1.135,0,0,1,.376.743,1.088,1.088,0,0,1-.295.891l-.041.043-.02.021c-.426.44-.866.9-1.315,1.332a1.091,1.091,0,0,1-.758.316,1.14,1.14,0,0,1-.772-.316c-.038-.036-.075-.072-.111-.109l-.111-.11-1-1.012-1.009-1.022-.108-.11c-1.783-1.808-3.626-3.677-5.441-5.512l-.052-.053a2.381,2.381,0,0,1-.653-.923v-.4a2.475,2.475,0,0,1,.684-.934l.054-.054,1.078-1.092c2.732-2.769,5.557-5.631,8.324-8.443a2.106,2.106,0,0,1,.916-.627h.339a2.471,2.471,0,0,1,.959.712c.416.426.839.854,1.2,1.216l.255.259.384.388.021.021.021.021a1.387,1.387,0,0,1,.147.168.55.55,0,0,1-.037.709.536.536,0,0,1-.393.17.5.5,0,0,1-.322-.113,4.585,4.585,0,0,1-.366-.348l-.052-.054-.053-.054-.055-.055c-.095-.1-.143-.145-.188-.145s-.088.044-.173.133l-.018.018-.04.04c-1.876,1.9-3.975,4.026-6.417,6.5l-2.148,2.178-1.082,1.1-.046.047c-.09.088-.133.133-.133.178s.048.093.143.187l.046.046.693.7.463.47q.879.889,1.756,1.78l3.048,3.089.063.064c.089.093.134.139.182.139s.105-.056.206-.158l.048-.048.117-.12.117-.12.045-.045c.227-.233.462-.474.7-.706.059-.059.083-.1.081-.146a.191.191,0,0,0-.081-.132c-.069-.062-.134-.129-.194-.191l-.106-.109a.6.6,0,0,1-.085-.91l.083-.117c.276-.388.589-.827.905-1.237a26.365,26.365,0,0,1,5.546-5.283.814.814,0,0,1,.455-.17.648.648,0,0,1,.489.262c.063.073.133.141.2.206.041.039.081.08.12.12a.117.117,0,0,0,.191,0l.212-.217c.28-.285.611-.621.945-.956.112-.113.038-.188-.034-.261l-1.336-1.354-.2-.205c-.159-.16-.328-.33-.492-.5a.53.53,0,0,1-.141-.6.538.538,0,0,1,.5-.36.568.568,0,0,1,.311.1.943.943,0,0,1,.147.132l.9.905.223.226.957.97a1.153,1.153,0,0,1,.361.812,1.093,1.093,0,0,1-.3.8l-.14.143c-.047.048-.094.1-.14.145l-.025.025c-.349.358-.709.729-1.074,1.08a1.088,1.088,0,0,1-.755.314,1.149,1.149,0,0,1-.754-.3c-.051-.045-.1-.093-.144-.137a.136.136,0,0,0-.1-.051.166.166,0,0,0-.1.04l-.921.705c-.044.034-.064.065-.064.1s.021.066.07.107l.258.23.167.15.168.149,1.08.958.019.018c1.5,1.333,3.057,2.712,4.582,4.072a.786.786,0,0,0,.56.243c.021,0,.042,0,.064,0l.357.007c.393-.349.992-.834,1.625-1.343l.024-.019c.573-.462,1.114-.9,1.458-1.2q1.749-1.554,3.5-3.1l.023-.021.039-.036.015-.013c.03-.028.063-.058.1-.084s.07-.073.069-.107-.028-.073-.085-.115l-.147-.111c-.224-.171-.483-.368-.728-.562a.2.2,0,0,0-.121-.051.2.2,0,0,0-.143.082,1.1,1.1,0,0,1-.736.383c-.045,0-.081,0-.114,0a1.039,1.039,0,0,1-.764-.3l-.016-.017c-.424-.419-.9-.895-1.358-1.379a1.111,1.111,0,0,1,0-1.552c.041-.046.086-.09.129-.134l.044-.044.044-.045,2.164-2.194c1.576-1.6,3.536-3.583,5.389-5.466l.036-.037a2.438,2.438,0,0,1,.927-.678h.4a2.49,2.49,0,0,1,.915.689l.057.057c3.14,3.184,6.221,6.309,9.406,9.529a2.118,2.118,0,0,1,.62.931v.342a2.5,2.5,0,0,1-.7.973c-.412.411-.825.831-1.189,1.2l-.006.006c-.215.219-.429.437-.645.654l-.034.034a1.5,1.5,0,0,1-.173.156.54.54,0,0,1-.328.114.527.527,0,0,1-.368-.151.548.548,0,0,1-.057-.728,4.326,4.326,0,0,1,.328-.354l.12-.12.029-.029.028-.03c.186-.188.186-.188.011-.361l-.027-.028-.031-.03q-4.825-4.891-9.65-9.779l-.046-.047c-.087-.09-.129-.134-.173-.134s-.095.049-.189.146l-.044.044-.246.249-.247.252c-.222.224-.442.446-.663.671q-2.4,2.436-4.8,4.87l-.023.023-.04.04c-.093.091-.138.136-.138.183s.053.1.157.207l.047.048.348.352c.191.194.414.419.628.643a.209.209,0,0,0,.144.084.191.191,0,0,0,.135-.084,2.872,2.872,0,0,1,.2-.208l.011-.011.044-.042.044-.043a.693.693,0,0,1,.472-.263.736.736,0,0,1,.422.178c.418.3.892.643,1.339,1a26.22,26.22,0,0,1,5.211,5.622.645.645,0,0,1-.091.956,2.375,2.375,0,0,0-.18.178c-.045.047-.091.1-.14.142a.124.124,0,0,0,0,.2l.205.206.008.008c.311.313.631.636.943.959a.154.154,0,0,0,.108.058c.053,0,.1-.042.149-.093.271-.278.552-.561.822-.835l.257-.26.257-.26.091-.093.089-.092c.159-.162.34-.347.519-.521a.569.569,0,0,1,.4-.185.543.543,0,0,1,.2.04.561.561,0,0,1,.33.351.552.552,0,0,1-.072.475,1.113,1.113,0,0,1-.129.15l-.377.382-.376.382q-.661.668-1.319,1.337a1.121,1.121,0,0,1-.8.366h-.019a1.031,1.031,0,0,1-.774-.307l-.13-.129-.032-.032c-.4-.4-.819-.813-1.212-1.234a1.126,1.126,0,0,1-.019-1.53,1.933,1.933,0,0,1,.135-.144.136.136,0,0,0,.01-.2c-.232-.313-.464-.624-.7-.935-.032-.044-.062-.065-.094-.065s-.064.021-.106.069c-.086.1-.174.2-.261.3l-.012.014c-.084.1-.167.189-.248.285-.751.866-1.564,1.813-2.262,2.625l-.035.041c-1.006,1.169-2.046,2.378-2.983,3.454l0,.11,0,.033a.249.249,0,0,1,.008.054c-.006,0-.013,0-.013.092a5.041,5.041,0,0,1-2.226,4.336,4.763,4.763,0,0,1-2.811.882,5.963,5.963,0,0,1-.613-.032.742.742,0,0,0-.074,0,.48.48,0,0,0-.365.174c-.038.038-.075.078-.112.117l-.052.056a2.355,2.355,0,0,1-.636.536Zm.383-3.683a.2.2,0,0,0-.147.077c-.334.351-.681.7-1.037,1.06l-.116.116c-.052.052-.074.089-.074.126a.153.153,0,0,0,.059.108c.228.222.463.46.718.728a.175.175,0,0,0,.115.062.172.172,0,0,0,.12-.07c.037-.041.077-.08.115-.118l.038-.038c.057-.054.123-.118.185-.188a.613.613,0,0,1,.488-.229.974.974,0,0,1,.2.021c.168.031.34.053.492.072l.031,0,.188.023a3.98,3.98,0,0,0,3.543-2.091,3.839,3.839,0,0,0,.427-2.76.671.671,0,0,1,.207-.7c.069-.061.134-.128.2-.193.045-.047.095-.1.146-.148a.165.165,0,0,0,.068-.118.168.168,0,0,0-.065-.12c-.132-.129-.266-.267-.384-.387l-.293-.3c-.072-.07-.111-.107-.148-.107s-.075.036-.144.1l-.575.581-.463.469c-.21.214-.21.214-.068.5a2.733,2.733,0,0,1,.071,2.25,2.658,2.658,0,0,1-1.6,1.5,2.686,2.686,0,0,1-.874.151,2.626,2.626,0,0,1-1.252-.33A.37.37,0,0,0,10754.536,12489.589Zm-6.526-12.621c-.049,0-.1.047-.2.149l-.036.035-.253.252-.043.043c-.471.467-.957.95-1.42,1.438l-.091.094-.032.033c-.19.189-.19.189.012.414l.111.127c1.712,1.982,3.73,4.319,5.726,6.619a.87.87,0,0,1,.226.678,4.177,4.177,0,0,0,.063,1.278.616.616,0,0,1-.19.618c-.036.035-.071.07-.105.106l-.034.035c-.054.056-.126.13-.2.2a.2.2,0,0,0-.083.141.2.2,0,0,0,.079.139c.118.112.233.23.345.345l.028.028c.083.086.186.192.286.291.074.073.109.105.146.105s.075-.035.147-.108c.137-.137.272-.275.408-.414.222-.227.458-.466.692-.692a.259.259,0,0,0,.041-.371,2.757,2.757,0,0,1-.332-1.26c.011-.071.019-.145.026-.216v-.012c.015-.12.029-.245.054-.365a2.66,2.66,0,0,1,2.49-2.109h.081a2.6,2.6,0,0,1,1.3.33.312.312,0,0,0,.157.055.229.229,0,0,0,.164-.086c.36-.375.712-.729,1.135-1.151.084-.084.114-.157.01-.263-.234-.229-.463-.46-.7-.706a.137.137,0,0,0-.235,0c-.085.092-.174.181-.261.268l-.047.047-.091.09a.562.562,0,0,1-.4.179.585.585,0,0,1-.136-.016,3.539,3.539,0,0,0-.832-.09c-.152,0-.312.007-.488.021l-.071,0a.813.813,0,0,1-.568-.232c-1.12-1-2.23-1.989-3.3-2.94-.869-.774-1.757-1.562-2.615-2.322l-.708-.628-.007-.007c-.023-.02-.044-.038-.062-.056C10748.1,12477.007,10748.054,12476.968,10748.01,12476.968Zm7.953,8.731a1.558,1.558,0,0,0-1.552,1.58,1.582,1.582,0,0,0,1.563,1.6h.011a1.606,1.606,0,0,0,1.562-1.59,1.581,1.581,0,0,0-1.571-1.587Zm8.032-8.733c-.052,0-.107.051-.217.152-.038.035-.079.072-.128.115l-1.64,1.453-.086.075c-1.093.968-1.882,1.668-3.369,2.993l2.922,2.963c.58-.665.7-.809.929-1.07l.011-.013c.142-.164.325-.378.7-.808l.908-1.05,0-.006.308-.355c.561-.647,1.134-1.311,1.7-1.966l.051-.058,0,0c.16-.181.16-.181-.034-.379l-.035-.036-.152-.158c-.476-.494-1.014-1.054-1.556-1.582-.05-.047-.089-.088-.129-.128C10764.09,12477.013,10764.045,12476.966,10764,12476.966Zm3.8-11.8c-.038,0-.075.036-.144.1l0,.006-.27.272-.067.067-.2.205-.037.038c-.112.113-.169.17-.169.22s.043.084.118.157c.024.023.054.052.085.084l.825.837c2.681,2.719,5.72,5.8,8.8,8.924l.023.023.023.023a1.061,1.061,0,0,0,.094.094.448.448,0,0,0,.063.041.329.329,0,0,1,.031.019c.053-.041.1-.075.138-.113l.27-.272.135-.136.135-.137.082-.085c.087-.087.135-.136.135-.18s-.041-.082-.125-.162c-.026-.025-.058-.056-.092-.091l-3.182-3.226-3.172-3.215-3.234-3.279-.018-.017-.018-.017c-.02-.02-.043-.042-.065-.067C10767.872,12465.2,10767.831,12465.161,10767.791,12465.161Zm-23.592,0c-.041,0-.079.04-.154.119l0,.006-.023.024-.065.067-2.47,2.5-2.374,2.405-4.748,4.811q-.026.029-.056.059l-.019.02-.025.025-.006.007c-.144.151-.146.154,0,.307.177.18.358.363.54.545l.036.036,0,0c.112.116.164.169.212.169s.08-.039.156-.122c.022-.024.049-.053.08-.084,1.433-1.449,2.881-2.917,4.307-4.361l1.364-1.383q1.98-2.007,3.962-4.013l.028-.028c.036-.037.074-.075.109-.116a.242.242,0,0,0,.039-.06s0-.01.008-.014.008-.016.013-.023l-.035-.045-.016-.02c-.021-.026-.041-.052-.062-.074-.179-.182-.357-.363-.539-.545-.031-.03-.058-.058-.081-.082C10744.287,12465.2,10744.242,12465.156,10744.2,12465.156Zm24.34,11.84h-.022a2.351,2.351,0,0,1-2.339-2.383,2.389,2.389,0,0,1,.7-1.7,2.28,2.28,0,0,1,1.595-.678h.126a2.367,2.367,0,0,1,2.29,2.378,2.437,2.437,0,0,1-.712,1.709A2.3,2.3,0,0,1,10768.539,12477Zm-.014-3.675a1.289,1.289,0,0,0,.006,2.577,1.251,1.251,0,0,0,.9-.386,1.293,1.293,0,0,0,.376-.916,1.314,1.314,0,0,0-1.267-1.275Zm-25.063,3.675a2.292,2.292,0,0,1-1.693-.741,2.46,2.46,0,0,1-.652-1.646,2.372,2.372,0,0,1,2.291-2.378h.126a2.28,2.28,0,0,1,1.595.678,2.389,2.389,0,0,1,.7,1.7,2.351,2.351,0,0,1-2.34,2.383Zm0-3.675a1.314,1.314,0,0,0-1.267,1.275,1.3,1.3,0,0,0,.375.916,1.239,1.239,0,0,0,1.792,0,1.287,1.287,0,0,0-.89-2.2Z" transform="translate(-10731.998 -12455.001)" stroke="rgba(0,0,0,0)" stroke-width="1"/>
    <path id="ic-2" data-name="ic" d="M715.99,328.4a.9.9,0,1,1,.9-.913.9.9,0,0,1-.9.913" transform="translate(-699.089 -313.601)" fill="#1a77d2" stroke="rgba(0,0,0,0)" stroke-width="1"/>
    <path id="ic-3" data-name="ic" d="M715.99,328.4a.9.9,0,1,1,.9-.913.9.9,0,0,1-.9.913" transform="translate(-673.589 -302.601)" fill="#1a77d2" stroke="rgba(0,0,0,0)" stroke-width="1"/>
  </g>
</svg>
