<svg xmlns="http://www.w3.org/2000/svg" xmlns:xlink="http://www.w3.org/1999/xlink" width="50" height="25" viewBox="0 0 50 25">
    <defs>
        <path id="a" d="M.016.042h6.746v8.183H.016z"/>
    </defs>
    <g fill="none" fill-rule="evenodd">
        <g transform="translate(0 .543)">
            <mask id="b" fill="#fff">
                <use xlink:href="#a"/>
            </mask>
            <path fill="#5E5E5F" d="M2.67 8.225L0 .042h1.141l1.276 4.031c.35 1.104.654 2.1.873 3.06h.025c.23-.948.57-1.98.934-3.048L5.633.042h1.129L3.835 8.225H2.67" mask="url(#b)"/>
        </g>
        <path fill="#5E5E5F" d="M10.454 5.26c.013-.68-.28-1.737-1.482-1.737-1.08 0-1.553.996-1.638 1.737h3.12zm-3.133.765c.025 1.445.947 2.04 2.016 2.04.765 0 1.226-.135 1.628-.305l.182.766c-.377.17-1.02.364-1.955.364-1.81 0-2.89-1.19-2.89-2.963 0-1.773 1.044-3.169 2.755-3.169 1.919 0 2.43 1.689 2.43 2.768 0 .218-.025.388-.037.499H7.32zM12.324 4.725c0-.691-.012-1.287-.048-1.834h.935l.036 1.154h.048c.267-.789.911-1.287 1.628-1.287.12 0 .207.013.303.037v1.008a1.576 1.576 0 0 0-.365-.037c-.752 0-1.285.57-1.432 1.372a2.97 2.97 0 0 0-.05.498V8.77h-1.055V4.725M15.857 8.767h1.07V2.891h-1.07v5.876zm1.191-7.527c.012.365-.256.656-.68.656a.636.636 0 0 1-.644-.656c0-.376.28-.667.67-.667.398 0 .654.291.654.667zM18.323 8.769V3.705h-.826V2.89h.826v-.279c0-.825.183-1.578.68-2.052.4-.388.934-.545 1.433-.545.377 0 .703.084.91.17l-.145.825a1.6 1.6 0 0 0-.68-.133c-.91 0-1.14.801-1.14 1.7v.314h1.418v.814H19.38v5.064h-1.057M21.853 8.767h1.068V2.891h-1.068v5.876zm1.189-7.527c.013.365-.256.656-.68.656a.636.636 0 0 1-.644-.656c0-.376.28-.667.669-.667.399 0 .655.291.655.667zM27.935 5.26c.011-.68-.279-1.737-1.48-1.737-1.081 0-1.554.996-1.64 1.737h3.12zm-3.132.765c.025 1.445.947 2.04 2.016 2.04.766 0 1.226-.135 1.627-.305l.183.766c-.377.17-1.022.364-1.955.364-1.81 0-2.89-1.19-2.89-2.963 0-1.773 1.044-3.169 2.754-3.169 1.92 0 2.43 1.689 2.43 2.768 0 .218-.024.388-.038.499h-4.127zM33.813 5.284c0-.134-.012-.316-.049-.45-.157-.68-.742-1.238-1.541-1.238-1.106 0-1.76.971-1.76 2.271 0 1.19.58 2.172 1.736 2.172.714 0 1.37-.472 1.565-1.275.037-.145.049-.29.049-.46v-1.02zM34.883.15V7.25c0 .523.01 1.117.046 1.519h-.957l-.05-1.02h-.025c-.327.655-1.043 1.152-2.004 1.152-1.42 0-2.511-1.202-2.511-2.987-.013-1.955 1.202-3.156 2.635-3.156.896 0 1.504.426 1.77.899h.026V.149h1.07zM39.943 6.413c0 .133.025.267.05.388.206.74.823 1.25 1.601 1.25 1.118 0 1.785-.91 1.785-2.257 0-1.177-.608-2.186-1.747-2.186-.729 0-1.409.498-1.628 1.312-.025.121-.061.266-.061.436v1.057zm-1.105 2.356c.025-.402.048-.996.048-1.519V.15h1.057v3.69h.025c.376-.655 1.055-1.08 2.003-1.08 1.458 0 2.489 1.214 2.478 2.998 0 2.1-1.324 3.144-2.635 3.144-.851 0-1.531-.327-1.968-1.104h-.035l-.05.972h-.923zM45.615 2.891L46.9 6.365c.134.388.28.85.376 1.202h.024c.111-.353.231-.803.378-1.227l1.164-3.449h1.13l-1.603 4.19c-.765 2.015-1.287 3.047-2.015 3.679-.522.46-1.044.642-1.31.692l-.269-.9a2.8 2.8 0 0 0 .935-.522c.292-.23.655-.643.9-1.19.048-.109.084-.193.084-.254a.93.93 0 0 0-.073-.279l-2.173-5.416h1.166M17.722 12.778l-3.238 8.19-1.311-6.963c-.151-.776-.759-1.227-1.435-1.227H6.442l-.071.348c1.086.24 2.32.618 3.07 1.023.457.251.588.468.736 1.06l2.484 9.602h3.291l5.043-12.033h-3.273M22.329 12.778l-2.573 12.033h3.113l2.568-12.033H22.33M29.523 16.113c.01-.43.421-.89 1.32-1.01.448-.058 1.675-.1 3.07.538l.547-2.55a8.35 8.35 0 0 0-2.912-.535c-3.078 0-5.24 1.638-5.261 3.982-.017 1.73 1.548 2.697 2.725 3.274 1.213.587 1.621.964 1.613 1.496-.005.807-.967 1.16-1.86 1.175-1.566.025-2.474-.422-3.2-.757l-.56 2.636c.724.333 2.068.624 3.462.638 3.265 0 5.405-1.616 5.416-4.117.014-3.178-4.39-3.352-4.36-4.77M39.717 12.778c-.599 0-1.103.347-1.327.883l-4.669 11.15h3.27l.65-1.798h3.984l.374 1.798h2.886l-2.51-12.033h-2.658zm-1.182 7.772l1.654-4.52.931 4.52h-2.585z"/>
    </g>
</svg>
