<svg xmlns="http://www.w3.org/2000/svg" width="50" height="15" viewBox="0 0 50 15">
    <g fill="#5E5E5F" fill-rule="nonzero">
        <path d="M18 14.581L20.494.555h3.896l-2.416 14.026z"/>
        <path d="M18 14.581L21.195.555h3.195l-2.416 14.026zM36.078.711c-.78-.312-2.026-.623-3.584-.623-3.897 0-6.702 1.948-6.702 4.753 0 2.104 1.948 3.195 3.507 3.896 1.558.701 2.026 1.169 2.026 1.792 0 .935-1.247 1.403-2.338 1.403-1.558 0-2.416-.234-3.74-.78l-.546-.233-.545 3.195c.935.39 2.65.779 4.441.779 4.13 0 6.858-1.948 6.858-4.91 0-1.636-1.013-2.882-3.351-3.895-1.403-.702-2.26-1.091-2.26-1.793 0-.623.701-1.246 2.26-1.246 1.325 0 2.26.233 2.96.545l.39.156.624-3.039z"/>
        <path d="M36.078.711c-.78-.312-2.026-.623-3.584-.623-3.897 0-6 1.948-6 4.753 0 2.104 1.246 3.195 2.805 3.896 1.558.701 2.026 1.169 2.026 1.792 0 .935-1.247 1.403-2.338 1.403-1.558 0-2.416-.234-3.74-.78l-.546-.233-.545 3.195c.935.39 2.65.779 4.441.779 4.13 0 6.858-1.948 6.858-4.91 0-1.636-1.013-2.882-3.351-3.895-1.403-.702-2.26-1.091-2.26-1.793 0-.623.701-1.246 2.26-1.246 1.325 0 2.26.233 2.96.545l.39.156.624-3.039zM42.78.555c-.936 0-1.637.078-2.027 1.013L34.91 14.581h4.208l.78-2.337h4.986l.468 2.337h3.74L45.818.555H42.78zm-1.793 9.35c.234-.7 1.558-4.129 1.558-4.129s.312-.857.546-1.403l.234 1.325s.779 3.507.935 4.286h-3.273v-.078z"/>
        <path d="M43.714.555c-.935 0-1.636.078-2.026 1.013L34.91 14.581h4.208l.78-2.337h4.986l.468 2.337h3.74L45.818.555h-2.104zm-2.727 9.35c.312-.778 1.558-4.129 1.558-4.129s.312-.857.546-1.403l.234 1.325s.779 3.507.935 4.286h-3.273v-.078zM10.831 10.373l-.39-2.026c-.7-2.337-2.96-4.909-5.454-6.155l3.507 12.467H12.7L19.013.633h-4.208l-3.974 9.74z"/>
        <path d="M10.831 10.373l-.39-2.026c-.7-2.337-2.96-4.909-5.454-6.155l3.507 12.467H12.7L19.013.633h-3.429l-4.753 9.74z"/>
        <path d="M0 .555l.701.156c4.987 1.169 8.416 4.13 9.74 7.636L9.04 1.724C8.805.789 8.104.555 7.247.555H0z"/>
        <path d="M0 .555C4.987 1.724 9.117 4.763 10.442 8.27L9.117 2.737c-.234-.935-1.013-1.48-1.87-1.48L0 .554z"/>
    </g>
</svg>
