<svg xmlns="http://www.w3.org/2000/svg" width="26" height="20" viewBox="0 0 26 20">
    <g fill="none" fill-rule="nonzero">
        <path fill="#A9A9A9" d="M4.677 19.9v-1.323c0-.508-.309-.839-.838-.839-.265 0-.552.089-.75.376-.155-.243-.375-.376-.706-.376a.713.713 0 0 0-.618.31v-.265h-.463V19.9h.463v-1.17c0-.375.199-.551.507-.551.31 0 .464.198.464.551v1.17h.463v-1.17c0-.375.22-.551.508-.551.308 0 .463.198.463.551v1.17h.507zm6.862-2.117h-.75v-.64h-.464v.64h-.419v.419h.42v.97c0 .486.198.773.727.773.199 0 .42-.066.574-.155l-.132-.397a.726.726 0 0 1-.397.11c-.221 0-.31-.132-.31-.353v-.948h.75v-.42zm3.927-.045a.622.622 0 0 0-.552.31v-.265h-.463V19.9h.463v-1.192c0-.353.155-.551.442-.551.088 0 .198.022.287.044l.132-.441c-.088-.023-.22-.023-.309-.023zm-5.935.221c-.22-.154-.53-.22-.86-.22-.53 0-.883.264-.883.683 0 .353.265.552.728.618l.22.022c.244.044.376.11.376.22 0 .155-.177.266-.485.266-.31 0-.552-.11-.706-.221l-.221.353c.243.177.574.265.904.265.618 0 .971-.287.971-.684 0-.375-.287-.574-.728-.64l-.22-.022c-.199-.022-.353-.066-.353-.199 0-.154.154-.242.397-.242.264 0 .53.11.662.176l.198-.375zm12.311-.22a.622.622 0 0 0-.551.308v-.264h-.464V19.9h.464v-1.192c0-.353.154-.551.44-.551.09 0 .2.022.288.044l.132-.441c-.088-.023-.22-.023-.309-.023zm-5.913 1.103c0 .64.442 1.103 1.126 1.103.308 0 .529-.066.75-.243l-.221-.375a.892.892 0 0 1-.552.199c-.375 0-.64-.265-.64-.684 0-.398.265-.662.64-.684.199 0 .376.066.552.198l.22-.375c-.22-.176-.44-.243-.75-.243-.683 0-1.125.464-1.125 1.104zm4.28 0v-1.06h-.463v.265a.797.797 0 0 0-.662-.309c-.595 0-1.059.464-1.059 1.104 0 .64.464 1.103 1.06 1.103.308 0 .529-.11.661-.31v.266h.464v-1.06zm-1.698 0c0-.375.242-.684.64-.684.375 0 .64.286.64.684 0 .375-.265.684-.64.684-.398-.022-.64-.31-.64-.684zm-5.538-1.104c-.618 0-1.06.442-1.06 1.104 0 .662.442 1.103 1.082 1.103.309 0 .618-.088.86-.287l-.22-.331c-.177.132-.397.22-.618.22-.287 0-.574-.132-.64-.507h1.567v-.176c.022-.684-.375-1.126-.971-1.126zm0 .398c.287 0 .485.176.53.507h-1.104c.044-.287.243-.507.574-.507zm11.495.706v-1.898h-.464v1.103a.797.797 0 0 0-.662-.309c-.595 0-1.059.464-1.059 1.104 0 .64.464 1.103 1.06 1.103.308 0 .529-.11.661-.31v.266h.464v-1.06zm-1.7 0c0-.375.243-.684.64-.684.376 0 .64.286.64.684 0 .375-.264.684-.64.684-.397-.022-.64-.31-.64-.684zm-15.487 0v-1.06h-.464v.265a.797.797 0 0 0-.661-.309c-.596 0-1.06.464-1.06 1.104 0 .64.464 1.103 1.06 1.103.308 0 .529-.11.661-.31v.266h.464v-1.06zm-1.721 0c0-.375.243-.684.64-.684.375 0 .64.286.64.684 0 .375-.265.684-.64.684-.397-.022-.64-.31-.64-.684z"/>
        <path fill="#747475" d="M9.377 1.699h6.95v12.488h-6.95z"/>
        <path fill="#4F4F51" d="M9.818 7.943a7.964 7.964 0 0 1 3.023-6.244A7.894 7.894 0 0 0 7.943 0 7.938 7.938 0 0 0 0 7.943a7.938 7.938 0 0 0 7.943 7.942c1.853 0 3.552-.64 4.898-1.699a7.93 7.93 0 0 1-3.023-6.243z"/>
        <path fill="#8C8C8D" d="M25.703 7.943a7.938 7.938 0 0 1-7.942 7.942 7.894 7.894 0 0 1-4.898-1.699 7.897 7.897 0 0 0 3.022-6.243 7.964 7.964 0 0 0-3.022-6.244A7.894 7.894 0 0 1 17.76 0c4.39 0 7.942 3.574 7.942 7.943z"/>
    </g>
</svg>
