<svg xmlns="http://www.w3.org/2000/svg" width="71" height="25" viewBox="0 0 71 25">
    <g fill="none" fill-rule="evenodd">
        <path fill="#4B4B4C" d="M66.465 9.805c0-.762.601-1.383 1.323-1.383.741 0 1.322.621 1.322 1.383 0 .761-.58 1.383-1.322 1.383-.722.02-1.323-.602-1.323-1.383zm1.323 1.082c.56 0 1.002-.481 1.002-1.062 0-.581-.461-1.062-1.002-1.062-.561 0-1.002.48-1.002 1.062 0 .58.44 1.062 1.002 1.062zm-.18-.46h-.281V9.203h.5c.101 0 .221 0 .302.06.1.06.14.18.14.3 0 .14-.08.261-.2.3l.22.542h-.301l-.18-.481h-.2v.501zm0-.682h.16c.06 0 .12 0 .16-.02.04-.02.06-.08.06-.14 0-.04-.02-.1-.06-.12-.04-.02-.12-.02-.16-.02h-.14l-.02.3zM47.53.568l-.36 2.364c-.782-.42-1.364-.581-1.985-.581-1.643 0-2.805 1.683-2.805 4.068 0 1.643.781 2.645 2.064 2.645.54 0 1.142-.18 1.883-.562l-.38 2.485c-.822.24-1.343.32-1.964.32-2.385 0-3.867-1.803-3.867-4.688 0-3.887 2.043-6.613 4.99-6.613.38 0 .72.04 1.001.12l.922.241c.24.1.3.12.5.2M40.176 2.19c-.06-.02-.14-.02-.22-.02-.722 0-1.143.381-1.824 1.443l.2-1.342H36.33l-1.363 8.836h2.224c.801-5.41 1.002-6.332 2.064-6.332h.16c.2-1.061.461-1.843.842-2.564l-.08-.02M26.93 10.987c-.6.2-1.081.3-1.582.3-1.122 0-1.743-.68-1.743-1.943 0-.24.02-.521.06-.801l.14-.862.1-.701.962-6.032h2.204l-.26 1.303h1.142l-.321 2.144H26.51l-.581 3.687c-.02.16-.04.28-.04.36 0 .461.24.662.761.662.26 0 .441-.02.601-.08l-.32 1.963M18.194 5.056c0 1.122.521 1.883 1.683 2.465.882.44 1.043.58 1.043.981 0 .541-.401.802-1.263.802-.661 0-1.262-.1-1.984-.36l-.3 2.043.1.02.4.08c.141.02.321.06.582.08.52.04.941.08 1.222.08 2.325 0 3.407-.941 3.407-2.945 0-1.202-.441-1.923-1.564-2.464-.921-.442-1.022-.542-1.022-.963 0-.48.361-.72 1.082-.72.441 0 1.022.06 1.584.14l.32-2.044a13.73 13.73 0 0 0-1.943-.18c-2.505 0-3.367 1.342-3.347 2.985M65.183 11.088h-2.104l.1-.862c-.601.681-1.242.981-2.044.981-1.623 0-2.685-1.462-2.685-3.666 0-2.946 1.643-5.43 3.607-5.43.862 0 1.503.38 2.124 1.201l.48-3.105h2.185l-1.663 10.88zm-3.266-2.065c1.042 0 1.763-1.222 1.763-2.985 0-1.122-.42-1.743-1.182-1.743-1.002 0-1.723 1.242-1.723 2.965 0 1.162.38 1.763 1.142 1.763zM33.944 10.907c-.762.24-1.483.36-2.284.36-2.465 0-3.767-1.362-3.767-3.967 0-3.045 1.643-5.27 3.867-5.27 1.823 0 2.986 1.263 2.986 3.226 0 .642-.08 1.283-.281 2.185h-4.408c-.02.14-.02.2-.02.28 0 1.042.661 1.563 1.943 1.563.782 0 1.503-.18 2.305-.561l-.34 2.184zm-1.242-5.27c.02-.18.02-.34.02-.44 0-.722-.381-1.143-1.042-1.143-.701 0-1.203.561-1.403 1.583h2.425zM9.298 11.088H7.093l1.263-8.356-2.845 8.355H4.007l-.18-8.295-1.342 8.296H.42L2.144.226H5.33l.08 6.733L7.574.227h3.447l-1.723 10.86M15.008 7.16c-.24-.02-.34-.04-.5-.04-1.263 0-1.884.46-1.884 1.343 0 .54.32.901.801.901.882 0 1.543-.902 1.583-2.204zm1.603 3.928h-1.843l.04-.922c-.561.741-1.303 1.062-2.324 1.062-1.203 0-2.024-.982-2.024-2.405 0-2.164 1.442-3.406 3.887-3.406.26 0 .581.02.902.06.06-.3.08-.421.08-.581 0-.582-.381-.802-1.423-.802-.62 0-1.342.1-1.843.26l-.281.1-.2.06.3-1.983c1.102-.34 1.844-.48 2.645-.48 1.904 0 2.906.901 2.906 2.584 0 .441-.04.761-.18 1.763l-.441 3.147-.08.56-.06.441-.04.32-.02.222zM51.357 7.16c-.22-.02-.341-.04-.501-.04-1.263 0-1.904.46-1.904 1.343 0 .54.321.901.802.901.901 0 1.563-.902 1.603-2.204zm1.603 3.928h-1.844l.04-.922c-.56.741-1.302 1.062-2.324 1.062-1.202 0-2.024-.982-2.024-2.405 0-2.164 1.443-3.406 3.888-3.406.24 0 .58.02.901.06.06-.3.08-.421.08-.581 0-.582-.38-.802-1.422-.802-.621 0-1.343.1-1.844.26l-.32.08-.2.06.3-1.983c1.102-.34 1.843-.48 2.645-.48 1.903 0 2.905.901 2.905 2.584 0 .44-.04.762-.18 1.764L53.1 9.504l-.06.561-.06.441-.04.301.02.28zM59.152 2.19c-.06-.02-.14-.02-.22-.02-.722 0-1.143.381-1.825 1.443l.2-1.342h-2.003l-1.362 8.836h2.224c.801-5.41 1.002-6.332 2.064-6.332h.16c.2-1.061.481-1.843.842-2.564l-.08-.02"/>
        <path fill="#8A8A8B" d="M49.854 19.684c0 2.003-.621 3.186-1.603 3.186-.721.02-1.142-.782-1.142-1.964 0-1.403.641-3.006 1.643-3.006.821 0 1.102.862 1.102 1.784zm2.184.02c0-2.225-1.102-3.968-3.166-3.968-2.385 0-3.927 2.104-3.927 5.21 0 2.224.921 4.048 3.166 4.048 2.264 0 3.927-1.603 3.927-5.29zM45.646 14.193l-.34 2.365c-.742-.421-1.263-.581-1.844-.581-1.543 0-2.625 1.683-2.625 4.067 0 1.643.721 2.645 1.924 2.645.52 0 1.082-.18 1.763-.56l-.36 2.484c-.762.24-1.263.32-1.844.32-2.224 0-3.627-1.803-3.627-4.688 0-3.888 1.923-6.613 4.669-6.613.36 0 .661.04.922.12l.841.241c.28.08.34.1.521.2M31.96 15.796c-.06-.02-.14-.02-.22-.02-.681 0-1.062.381-1.703 1.443l.2-1.343h-1.864l-1.262 8.837h2.064c.741-5.41.942-6.332 1.923-6.332.06 0 .06 0 .161.02.18-1.062.44-1.843.781-2.565l-.08-.04M58.971 24.633h-1.964l.1-.862c-.56.681-1.162.982-1.923.982-1.503 0-2.505-1.463-2.505-3.667 0-2.945 1.543-5.43 3.367-5.43.8 0 1.422.38 1.983 1.222l.461-3.106h2.044l-1.563 10.86zm-3.066-2.084c.982 0 1.643-1.222 1.643-2.986 0-1.122-.38-1.723-1.102-1.723-.941 0-1.603 1.223-1.603 2.965 0 1.163.36 1.744 1.062 1.744zM12.564 24.593c-.701.24-1.383.36-2.124.36-2.305 0-3.507-1.362-3.507-3.967 0-3.026 1.543-5.27 3.607-5.27 1.703 0 2.785 1.242 2.785 3.226 0 .642-.08 1.283-.26 2.184H8.956c-.02.14-.02.2-.02.28 0 1.023.621 1.544 1.824 1.544.74 0 1.402-.18 2.143-.561l-.34 2.204zm-1.162-5.27c0-.18.02-.34.02-.441 0-.721-.361-1.142-.982-1.142-.661 0-1.122.56-1.323 1.583h2.285zM37.17 24.593c-.701.24-1.383.36-2.124.36-2.325 0-3.526-1.362-3.526-3.967 0-3.026 1.542-5.27 3.606-5.27 1.703 0 2.806 1.242 2.806 3.226 0 .642-.08 1.283-.26 2.184h-4.109c-.02.14-.02.2-.02.28 0 1.023.621 1.544 1.824 1.544.741 0 1.403-.18 2.144-.561l-.341 2.204zm-1.162-5.27c.02-.18.02-.34.02-.441 0-.721-.36-1.142-.982-1.142-.661 0-1.122.56-1.323 1.583h2.285zM66.025 24.593c-.722.24-1.403.36-2.125.36-2.304 0-3.526-1.362-3.526-3.967 0-3.026 1.543-5.27 3.627-5.27 1.703 0 2.785 1.242 2.785 3.226 0 .642-.08 1.283-.26 2.184h-4.108c-.02.14-.02.2-.02.28 0 1.023.62 1.544 1.823 1.544.742 0 1.403-.18 2.144-.561l-.34 2.204zm-1.163-5.27c0-.18.02-.34.02-.441 0-.721-.36-1.142-.982-1.142-.66 0-1.122.56-1.322 1.583h2.284zM6.432 16.197c-.4-.28-.962-.5-1.723-.5-.842 0-1.503.18-1.503 1.06 0 1.564 3.046.983 3.046 4.35 0 3.065-2.004 3.866-3.827 3.866-.802 0-1.744-.26-2.425-.58l.5-2.245c.422.38 1.243.641 1.945.641.66 0 1.663-.18 1.663-1.322 0-1.783-3.046-1.122-3.046-4.248 0-2.865 1.783-3.707 3.507-3.707.961 0 1.883.14 2.404.5l-.541 2.185M18.615 24.593c-.42.2-1.002.34-1.844.34-1.803 0-2.925-1.803-2.925-4.007 0-2.886 1.623-5.17 4.008-5.17.52 0 1.322.22 1.943.581l-.46 2.104c-.441-.3-.902-.48-1.383-.48-1.102 0-1.904 1.021-1.904 2.825 0 1.042.581 1.903 1.483 1.903.541 0 .922-.12 1.383-.38l-.3 2.284M26.35 22.368c-.1.762-.2 1.503-.26 2.285h-1.985l.16-1.423h-.02c-.62.962-1.262 1.623-2.404 1.623-1.242 0-1.923-1.322-1.923-3.025 0-.601.04-.922.16-1.844l.561-4.088h2.224l-.6 4.108c-.061.44-.141.882-.141 1.342 0 .522.24 1.043.841 1.002.902 0 1.443-1.102 1.603-2.404l.622-4.048h2.144l-.982 6.472M68.088 24.553h-.34V23.09h-.481v-.32h1.302v.32h-.48v1.463M70.313 24.553h-.321V23.07l-.3 1.483h-.321l-.3-1.483v1.483h-.321V22.77h.5l.281 1.402h.02l.28-1.402h.481v1.783"/>
    </g>
</svg>
