<svg id="ic-nerve-safe-mode_-48" data-name="ic-nerve-safe-mode -48" xmlns="http://www.w3.org/2000/svg" xmlns:xlink="http://www.w3.org/1999/xlink" width="48" height="48" viewBox="0 0 48 48">
  <defs>
    <clipPath id="clip-path">
      <path id="wrap" d="M0,0H48V48H0Z" fill="none"/>
    </clipPath>
  </defs>
  <g id="ic-nerve-safe-mode" clip-path="url(#clip-path)">
    <path id="ic" d="M1513.072,65.661c-.411-.1-.832-.18-1.232-.313a3.113,3.113,0,0,1-2.2-3.343c.039-.564.137-1.123.215-1.734-.406-.228-.863-.486-1.321-.741a2.641,2.641,0,0,1-1.228-3.305,2.208,2.208,0,0,1,2.661-1.362,5.126,5.126,0,0,1,.656.19c.288.124.46.008.67-.186a8.885,8.885,0,0,0,2.5-4.925,6.194,6.194,0,0,1,2.816-4.194,4.048,4.048,0,0,1,2.055-.615q.61-.015,1.22,0c.168,0,.24-.063.227-.228a.121.121,0,0,1,0-.03,1.245,1.245,0,0,0-.643-1.361,5.883,5.883,0,0,1-2.59-4.7,15.6,15.6,0,0,1,.1-4.007,6.163,6.163,0,0,1,4.792-5c.228-.06.462-.1.693-.148h1.314a12.344,12.344,0,0,1,1.488.393,6.018,6.018,0,0,1,4.041,5.074,14.08,14.08,0,0,1-.1,4.745,6.088,6.088,0,0,1-2.636,3.813c-.151.1-.386.21-.413.347a3.989,3.989,0,0,0-.006.984c0,.04.151.1.233.1.543.025,1.092,0,1.628.06a4.461,4.461,0,0,1,2.77,1.495,7.417,7.417,0,0,1,1.758,3.576c.15.65.348,1.289.558,1.923a7.927,7.927,0,0,0,1.555,2.386,1.112,1.112,0,0,0,1.425.37,2.164,2.164,0,0,1,2.758,1.07,2.606,2.606,0,0,1-.6,3.136,14.028,14.028,0,0,1-1.411.879c-.159.1-.323.189-.492.288a5.944,5.944,0,0,1,.25,2.382,2.957,2.957,0,0,1-1.953,2.566,14.09,14.09,0,0,1-1.557.4c-.411.032-.554-.192-.672-.548a.718.718,0,0,1,.31-.874,7.368,7.368,0,0,0,1.225-.21,1.689,1.689,0,0,0,1.041-.791,2.569,2.569,0,0,0,.193-1.809,1.906,1.906,0,0,0-1.062-1.62,3.6,3.6,0,0,0-2.364-.022c-1.788.45-3.569.921-5.352,1.384-.447.116-.893.238-1.351.36.137.871.262,1.7.407,2.526a.326.326,0,0,0,.231.189c.194.03,2.2,0,2.4.015a.68.68,0,0,1,.645.53.7.7,0,0,1-.266.743,1.787,1.787,0,0,1-.193.13c-4.465,0-10.737,0-15.2,0m1.936-9.5c.542-.595,1.067-1.155,1.573-1.729a.59.59,0,0,0,.11-.354c.011-.69,0-1.38.009-2.07a.691.691,0,0,1,.542-.689.659.659,0,0,1,.776.407,1.414,1.414,0,0,1,.072.5c0,2.229.008,4.459,0,6.688,0,.27.076.4.341.441.3.053.6.142.894.22q1.812.471,3.625.942a.728.728,0,0,0,.349,0c1.526-.39,3.05-.792,4.577-1.175.231-.058.291-.159.29-.388q-.012-3.329,0-6.659a2.928,2.928,0,0,1,.012-.36.693.693,0,0,1,1.381.09c.008.679,0,1.36.008,2.039a.548.548,0,0,0,.09.331c.52.588,1.053,1.164,1.6,1.761l1.627-1.505a.579.579,0,0,0-.046-.1,9.08,9.08,0,0,1-1.568-3.643,6.848,6.848,0,0,0-1.25-2.977,3.359,3.359,0,0,0-2.706-1.392c-.4,0-.794.01-1.19,0a.432.432,0,0,0-.41.216,4.009,4.009,0,0,1-.785.885,2.981,2.981,0,0,1-4.169-.53,2.924,2.924,0,0,1-.241-.363.5.5,0,0,0-.344-.2c-.4-.024-.793,0-1.19-.01a3.356,3.356,0,0,0-2.74,1.384,6.473,6.473,0,0,0-1.213,2.8,10.039,10.039,0,0,1-1.232,3.289c-.138.215-.283.426-.431.647Zm3.255-18.374a4.956,4.956,0,0,0,2.481,4.911,4.652,4.652,0,0,0,5.167-.262,4.927,4.927,0,0,0,2.079-4.727c-.483-.06-.948-.1-1.4-.18a12.485,12.485,0,0,1-4.611-1.664c-.181-.114-.271-.074-.4.069A4.465,4.465,0,0,1,1520,37.173c-.538.24-1.12.4-1.735.612Zm2.158,23.547a2.51,2.51,0,0,0-.248-.09q-2.432-.63-4.864-1.251a7.622,7.622,0,0,0-2.336-.381,1.732,1.732,0,0,0-1.756,1.341,4.846,4.846,0,0,0-.175,1.415,1.659,1.659,0,0,0,1.34,1.676,6.331,6.331,0,0,0,1.464.2c1.705.023,3.41.01,5.117.008.1,0,.209-.009.316-.014-.222-1.476-.124-1.722,1.142-2.9m-2.17-25.058a5.658,5.658,0,0,0,.6-.123,4.088,4.088,0,0,0,2.225-1.84.709.709,0,0,1,1.176-.09,2.862,2.862,0,0,0,.641.562,11.574,11.574,0,0,0,3.85,1.35c.411.076.832.1,1.247.148a4.865,4.865,0,0,0-2.332-4.491,4.629,4.629,0,0,0-5.1.039,4.852,4.852,0,0,0-2.3,4.445M1532.2,57.2c.3.332.588.648.882.952a.362.362,0,0,0,.222.055,3.387,3.387,0,0,1,2.157.8.281.281,0,0,0,.254.035c.5-.27,1-.526,1.47-.839a1.345,1.345,0,0,0,.468-.59,1.071,1.071,0,0,0-.194-1.17.89.89,0,0,0-1.018-.162c-.247.071-.493.148-.742.211a1.473,1.473,0,0,1-1.619-.531,2.548,2.548,0,0,1-.191-.323Zm-18.132,0-1.61-1.493a1.522,1.522,0,0,0-.193.172,1.616,1.616,0,0,1-1.989.532,5.065,5.065,0,0,0-.774-.2.731.731,0,0,0-.755.306,1.219,1.219,0,0,0,.329,1.7c.029.02.059.038.09.055.452.255.9.512,1.356.75a.336.336,0,0,0,.3-.019,3.423,3.423,0,0,1,2.131-.793.439.439,0,0,0,.271-.083c.276-.292.543-.6.842-.928Zm9.994,7.037c-.126-.8-.245-1.568-.372-2.372-.83.224-1.613.428-2.391.652a1.309,1.309,0,0,0-.4.247.772.772,0,0,0-.3.847.73.73,0,0,0,.684.616c.909.023,1.819,0,2.784,0Zm-2.514-19.708a1.885,1.885,0,0,0,.821,2.112,1.643,1.643,0,0,0,1.808-.188,1.9,1.9,0,0,0,.524-1.918,6.312,6.312,0,0,1-3.153-.005m8.047,11.884v2.476l1.825-.474Zm-12.9-.008-1.839,2.009,1.836.472Z" transform="translate(-1499.126 -23.666)"/>
    <path id="ic-2" data-name="ic" d="M715.99,328.4a.9.9,0,1,1,.9-.913.9.9,0,0,1-.9.913" transform="translate(-684.589 -286.101)" fill="#1a77d2" stroke="rgba(0,0,0,0)" stroke-width="1"/>
  </g>
</svg>
